<?xml version="1.0" encoding="UTF-8" standalone="no"?>
<!-- Generated by graphviz version 2.40.1 (20161225.0304)
 -->

<!-- Title: state transitions Pages: 1 -->

<svg
   width="430pt"
   height="434pt"
   viewBox="0.00 0.00 429.51 434.00"
   version="1.1"
   id="svg17"
   sodipodi:docname="control_0.svg"
   inkscape:version="1.3.2 (091e20ef0f, 2023-11-25, custom)"
   inkscape:export-filename="control_0.png"
   inkscape:export-xdpi="288"
   inkscape:export-ydpi="288"
   xmlns:inkscape="http://www.inkscape.org/namespaces/inkscape"
   xmlns:sodipodi="http://sodipodi.sourceforge.net/DTD/sodipodi-0.dtd"
   xmlns="http://www.w3.org/2000/svg"
   xmlns:svg="http://www.w3.org/2000/svg">
  <defs
     id="defs17" />
  <sodipodi:namedview
     id="namedview17"
     pagecolor="#ffffff"
     bordercolor="#666666"
     borderopacity="1.0"
     inkscape:showpageshadow="2"
     inkscape:pageopacity="0.0"
     inkscape:pagecheckerboard="0"
     inkscape:deskcolor="#d1d1d1"
     inkscape:document-units="pt"
     inkscape:zoom="1.3496544"
     inkscape:cx="286.36961"
     inkscape:cy="289.33333"
     inkscape:window-width="1920"
     inkscape:window-height="1006"
     inkscape:window-x="0"
     inkscape:window-y="0"
     inkscape:window-maximized="1"
     inkscape:current-layer="graph0" />
  <g
     id="graph0"
     class="graph"
     transform="scale(1 1) rotate(0) translate(4 430)">
    <title
       id="title1">state transitions</title>
    <polygon
       fill="#ffffff"
       stroke="transparent"
       points="-4,4 -4,-430 425.513,-430 425.513,4 -4,4"
       id="polygon1" />
    <g
       id="clust1"
       class="cluster state regular">
      <title
         id="title2">cluster_fsm_control_state</title>
      <path
         fill="none"
         stroke="#000000"
         stroke-width="2"
         d="M20,-8C20,-8 314,-8 314,-8 320,-8 326,-14 326,-20 326,-20 326,-406 326,-406 326,-412 320,-418 314,-418 314,-418 20,-418 20,-418 14,-418 8,-412 8,-406 8,-406 8,-20 8,-20 8,-14 14,-8 20,-8"
         id="path2" />
      <text
         text-anchor="start"
         x="119.6564"
         y="-399.2"
         font-family="Helvetica,sans-Serif"
         font-size="12.00"
         fill="#000000"
         id="text2">fsm_control_state</text>
    </g>
    <!-- fsm_control_state -->
    <!-- ulpi_config_state -->
    <g
       id="node2"
       class="node state regular">
      <title
         id="title3">ulpi_config_state</title>
      <polygon
         fill="#ffffff"
         fill-opacity="0.003922"
         stroke="transparent"
         stroke-width="2"
         points="139,-380 27,-380 27,-344 139,-344 139,-380"
         id="polygon3" />
      <text
         text-anchor="start"
         x="37.985"
         y="-358.2"
         font-family="Helvetica,sans-Serif"
         font-size="12.00"
         fill="#000000"
         id="text3">ulpi_config_state</text>
      <path
         fill="none"
         stroke="#000000"
         stroke-width="2"
         d="M39.3333,-345C39.3333,-345 126.6667,-345 126.6667,-345 132.3333,-345 138,-350.6667 138,-356.3333 138,-356.3333 138,-367.6667 138,-367.6667 138,-373.3333 132.3333,-379 126.6667,-379 126.6667,-379 39.3333,-379 39.3333,-379 33.6667,-379 28,-373.3333 28,-367.6667 28,-367.6667 28,-356.3333 28,-356.3333 28,-350.6667 33.6667,-345 39.3333,-345"
         id="path3" />
    </g>
    <!-- ulpi_config_state&#45;&gt;ulpi_config_state -->
    <g
       id="edge2"
       class="edge transition">
      <title
         id="title4">ulpi_config_state-&gt;ulpi_config_state</title>
      <path
         fill="none"
         stroke="#000000"
         d="M139.092,-366.756C151.7451,-366.3275 161,-364.7422 161,-362 161,-360.0719 156.4245,-358.7157 149.3094,-357.9315"
         id="path4" />
      <polygon
         fill="#000000"
         stroke="#000000"
         points="149.3044,-354.4233 139.092,-357.244 148.8344,-361.4075 149.3044,-354.4233"
         id="polygon4" />
      <text
         text-anchor="start"
         x="161"
         y="-359"
         font-family="Helvetica, sans-Serif"
         font-size="10px"
         fill="#000000"
         id="text4">(i_register_busy = '1')   </text>
    </g>
    <!-- usb_connect_state -->
    <g
       id="node3"
       class="node state regular">
      <title
         id="title5">usb_connect_state</title>
      <polygon
         fill="#ffffff"
         fill-opacity="0.003922"
         stroke="transparent"
         stroke-width="2"
         points="144,-298 22,-298 22,-262 144,-262 144,-298"
         id="polygon5" />
      <text
         text-anchor="start"
         x="32.6438"
         y="-276.2"
         font-family="Helvetica,sans-Serif"
         font-size="12.00"
         fill="#000000"
         id="text5">usb_connect_state</text>
      <path
         fill="none"
         stroke="#000000"
         stroke-width="2"
         d="M34.3333,-263C34.3333,-263 131.6667,-263 131.6667,-263 137.3333,-263 143,-268.6667 143,-274.3333 143,-274.3333 143,-285.6667 143,-285.6667 143,-291.3333 137.3333,-297 131.6667,-297 131.6667,-297 34.3333,-297 34.3333,-297 28.6667,-297 23,-291.3333 23,-285.6667 23,-285.6667 23,-274.3333 23,-274.3333 23,-268.6667 28.6667,-263 34.3333,-263"
         id="path5" />
    </g>
    <!-- ulpi_config_state&#45;&gt;usb_connect_state -->
    <g
       id="edge1"
       class="edge transition">
      <title
         id="title6">ulpi_config_state-&gt;usb_connect_state</title>
      <path
         fill="none"
         stroke="#000000"
         d="M83,-343.8015C83,-333.3976 83,-320.1215 83,-308.3768"
         id="path6" />
      <polygon
         fill="#000000"
         stroke="#000000"
         points="86.5001,-308.1476 83,-298.1476 79.5001,-308.1476 86.5001,-308.1476"
         id="polygon6" />
      <text
         text-anchor="start"
         x="86.33419"
         y="-319.11139"
         font-family="Helvetica, sans-Serif"
         font-size="10px"
         fill="#000000"
         id="text6">i_register_busy = '0'   </text>
    </g>
    <!-- usb_connect_state&#45;&gt;usb_connect_state -->
    <g
       id="edge4"
       class="edge transition">
      <title
         id="title7">usb_connect_state-&gt;usb_connect_state</title>
      <path
         fill="none"
         stroke="#000000"
         d="M144.1684,-284.7036C156.8678,-284.2085 166,-282.6406 166,-280 166,-278.1433 161.4852,-276.817 154.39,-276.021"
         id="path7" />
      <polygon
         fill="#000000"
         stroke="#000000"
         points="154.3909,-272.5124 144.1684,-275.2964 153.8959,-279.4948 154.3909,-272.5124"
         id="polygon7" />
      <text
         text-anchor="start"
         x="166"
         y="-277"
         font-family="Helvetica, sans-Serif"
         font-size="10px"
         fill="#000000"
         id="text7">(ulpi_config_finished = '0')   </text>
    </g>
    <!-- usb_config_state -->
    <g
       id="node4"
       class="node state regular">
      <title
         id="title8">usb_config_state</title>
      <polygon
         fill="#ffffff"
         fill-opacity="0.003922"
         stroke="transparent"
         stroke-width="2"
         points="128,-216 16,-216 16,-180 128,-180 128,-216"
         id="polygon8" />
      <text
         text-anchor="start"
         x="26.6478"
         y="-194.2"
         font-family="Helvetica,sans-Serif"
         font-size="12.00"
         fill="#000000"
         id="text8">usb_config_state</text>
      <path
         fill="none"
         stroke="#000000"
         stroke-width="2"
         d="M28.3333,-181C28.3333,-181 115.6667,-181 115.6667,-181 121.3333,-181 127,-186.6667 127,-192.3333 127,-192.3333 127,-203.6667 127,-203.6667 127,-209.3333 121.3333,-215 115.6667,-215 115.6667,-215 28.3333,-215 28.3333,-215 22.6667,-215 17,-209.3333 17,-203.6667 17,-203.6667 17,-192.3333 17,-192.3333 17,-186.6667 22.6667,-181 28.3333,-181"
         id="path8" />
    </g>
    <!-- usb_connect_state&#45;&gt;usb_config_state -->
    <g
       id="edge3"
       class="edge transition">
      <title
         id="title9">usb_connect_state-&gt;usb_config_state</title>
      <path
         fill="none"
         stroke="#000000"
         d="M80.5587,-261.8015C79.1631,-251.3976 77.3822,-238.1215 75.8066,-226.3768"
         id="path9" />
      <polygon
         fill="#000000"
         stroke="#000000"
         points="79.233,-225.5934 74.4344,-216.1476 72.2951,-226.5242 79.233,-225.5934"
         id="polygon9" />
      <text
         text-anchor="start"
         x="78"
         y="-236"
         font-family="Helvetica,sans-Serif"
         font-size="10.00"
         fill="#000000"
         id="text9">ulpi_config_finished = '1'   </text>
    </g>
    <!-- usb_config_state&#45;&gt;usb_config_state -->
    <g
       id="edge6"
       class="edge transition">
      <title
         id="title10">usb_config_state-&gt;usb_config_state</title>
      <path
         fill="none"
         stroke="#000000"
         d="M128.092,-202.756C140.7451,-202.3275 150,-200.7422 150,-198 150,-196.0719 145.4245,-194.7157 138.3094,-193.9315"
         id="path10" />
      <polygon
         fill="#000000"
         stroke="#000000"
         points="138.3044,-190.4233 128.092,-193.244 137.8344,-197.4075 138.3044,-190.4233"
         id="polygon10" />
      <text
         text-anchor="start"
         x="150"
         y="-195"
         font-family="Helvetica, sans-Serif"
         font-size="10px"
         fill="#000000"
         id="text10">(ulpi_config_finished = '0')   </text>
    </g>
    <!-- usb_idle_state -->
    <g
       id="node5"
       class="node state regular">
      <title
         id="title11">usb_idle_state</title>
      <polygon
         fill="#ffffff"
         fill-opacity="0.003922"
         stroke="transparent"
         stroke-width="2"
         points="115.5,-134 16.5,-134 16.5,-98 115.5,-98 115.5,-134"
         id="polygon11" />
      <text
         text-anchor="start"
         x="27.8192"
         y="-112.2"
         font-family="Helvetica,sans-Serif"
         font-size="12.00"
         fill="#000000"
         id="text11">usb_idle_state</text>
      <path
         fill="none"
         stroke="#000000"
         stroke-width="2"
         d="M28.8333,-99C28.8333,-99 103.1667,-99 103.1667,-99 108.8333,-99 114.5,-104.6667 114.5,-110.3333 114.5,-110.3333 114.5,-121.6667 114.5,-121.6667 114.5,-127.3333 108.8333,-133 103.1667,-133 103.1667,-133 28.8333,-133 28.8333,-133 23.1667,-133 17.5,-127.3333 17.5,-121.6667 17.5,-121.6667 17.5,-110.3333 17.5,-110.3333 17.5,-104.6667 23.1667,-99 28.8333,-99"
         id="path11" />
    </g>
    <!-- usb_config_state&#45;&gt;usb_idle_state -->
    <g
       id="edge5"
       class="edge transition">
      <title
         id="title12">usb_config_state-&gt;usb_idle_state</title>
      <path
         fill="none"
         stroke="#000000"
         d="M61.4969,-179.655C59.0284,-174.4383 56.7503,-168.6383 55.487,-163 54.1285,-156.9368 54.4446,-150.4333 55.5775,-144.2559"
         id="path12" />
      <polygon
         fill="#000000"
         stroke="#000000"
         points="59.0358,-144.857 58.1038,-134.3033 52.251,-143.1347 59.0358,-144.857"
         id="polygon12" />
      <text
         text-anchor="start"
         x="55"
         y="-154"
         font-family="Helvetica,sans-Serif"
         font-size="10.00"
         fill="#000000"
         id="text12">ulpi_config_finished = '1'   </text>
    </g>
    <!-- usb_idle_state&#45;&gt;usb_idle_state -->
    <g
       id="edge8"
       class="edge transition">
      <title
         id="title13">usb_idle_state-&gt;usb_idle_state</title>
      <path
         fill="none"
         stroke="#000000"
         d="M115.7872,-120.8081C128.2127,-120.4718 137.5,-118.8691 137.5,-116 137.5,-113.9826 132.9085,-112.5914 125.863,-111.8263"
         id="path13" />
      <polygon
         fill="#000000"
         stroke="#000000"
         points="125.9874,-108.3272 115.7872,-111.1919 125.5475,-115.3134 125.9874,-108.3272"
         id="polygon13" />
      <text
         text-anchor="start"
         x="137.5"
         y="-113"
         font-family="Helvetica, sans-Serif"
         font-size="10px"
         fill="#000000"
         id="text13">(ulpi_config_finished = '0')   </text>
    </g>
    <!-- usb_disconnect -->
    <g
       id="node6"
       class="node state regular">
      <title
         id="title14">usb_disconnect</title>
      <polygon
         fill="#ffffff"
         fill-opacity="0.003922"
         stroke="transparent"
         stroke-width="2"
         points="140.5,-52 35.5,-52 35.5,-16 140.5,-16 140.5,-52"
         id="polygon14" />
      <text
         text-anchor="start"
         x="46.818"
         y="-30.2"
         font-family="Helvetica,sans-Serif"
         font-size="12.00"
         fill="#000000"
         id="text14">usb_disconnect</text>
      <path
         fill="none"
         stroke="#000000"
         stroke-width="2"
         d="M47.8333,-17C47.8333,-17 128.1667,-17 128.1667,-17 133.8333,-17 139.5,-22.6667 139.5,-28.3333 139.5,-28.3333 139.5,-39.6667 139.5,-39.6667 139.5,-45.3333 133.8333,-51 128.1667,-51 128.1667,-51 47.8333,-51 47.8333,-51 42.1667,-51 36.5,-45.3333 36.5,-39.6667 36.5,-39.6667 36.5,-28.3333 36.5,-28.3333 36.5,-22.6667 42.1667,-17 47.8333,-17"
         id="path14" />
    </g>
    <!-- usb_idle_state&#45;&gt;usb_disconnect -->
    <g
       id="edge7"
       class="edge transition">
      <title
         id="title15">usb_idle_state-&gt;usb_disconnect</title>
      <path
         fill="none"
         stroke="#000000"
         d="M70.8825,-97.8015C73.7023,-87.2915 77.3085,-73.8503 80.4831,-62.0177"
         id="path15" />
      <polygon
         fill="#000000"
         stroke="#000000"
         points="83.9202,-62.713 83.1311,-52.1476 77.1593,-60.899 83.9202,-62.713"
         id="polygon15" />
      <text
         text-anchor="start"
         x="78"
         y="-72"
         font-family="Helvetica,sans-Serif"
         font-size="10.00"
         fill="#000000"
         id="text15">ulpi_config_finished = '1'   </text>
    </g>
    <!-- usb_disconnect&#45;&gt;usb_connect_state -->
    <g
       id="edge9"
       class="edge transition">
      <title
         id="title16">usb_disconnect-&gt;usb_connect_state</title>
      <path
         fill="none"
         stroke="#000000"
         d="M140.6606,-44.477C192.4644,-55.8983 266.4174,-75.569 285,-98 302.7992,-119.4854 312.6887,-194.8718 297,-216 279.7249,-239.2646 209.6881,-257.1776 154.3796,-268.0587"
         id="path16" />
      <polygon
         fill="#000000"
         stroke="#000000"
         points="153.399,-264.683 144.2397,-270.0083 154.7207,-271.5571 153.399,-264.683"
         id="polygon16" />
      <text
         text-anchor="start"
         x="187.30347"
         y="-162.89116"
         font-family="Helvetica, sans-Serif"
         font-size="10px"
         fill="#000000"
         id="text16">ulpi_config_finished = '1'   </text>
    </g>
    <!-- usb_disconnect&#45;&gt;usb_disconnect -->
    <g
       id="edge10"
       class="edge transition">
      <title
         id="title17">usb_disconnect-&gt;usb_disconnect</title>
      <path
         fill="none"
         stroke="#000000"
         d="M140.5605,-38.789C153.1625,-38.4147 162.5,-36.8184 162.5,-34 162.5,-32.0183 157.8837,-30.6408 150.7621,-29.8675"
         id="path17" />
      <polygon
         fill="#000000"
         stroke="#000000"
         points="150.7647,-26.3605 140.5605,-29.211 150.3151,-33.346 150.7647,-26.3605"
         id="polygon17" />
      <text
         text-anchor="start"
         x="162.5"
         y="-31"
         font-family="Helvetica, sans-Serif"
         font-size="10px"
         fill="#000000"
         id="text17">(ulpi_config_finished = '0')   </text>
    </g>
  </g>
</svg>
