<?xml version="1.0" encoding="UTF-8" standalone="no"?>
<!-- Generated by graphviz version 2.40.1 (20161225.0304)
 -->

<!-- Title: state transitions Pages: 1 -->

<svg
   width="713pt"
   height="446pt"
   viewBox="0.00 0.00 713.00 446.00"
   version="1.1"
   id="svg26"
   sodipodi:docname="ulpi_reg.svg"
   inkscape:version="1.3.2 (091e20ef0f, 2023-11-25, custom)"
   inkscape:export-filename="ulpi_reg.png"
   inkscape:export-xdpi="288"
   inkscape:export-ydpi="288"
   xmlns:inkscape="http://www.inkscape.org/namespaces/inkscape"
   xmlns:sodipodi="http://sodipodi.sourceforge.net/DTD/sodipodi-0.dtd"
   xmlns="http://www.w3.org/2000/svg"
   xmlns:svg="http://www.w3.org/2000/svg">
  <defs
     id="defs26" />
  <sodipodi:namedview
     id="namedview26"
     pagecolor="#ffffff"
     bordercolor="#666666"
     borderopacity="1.0"
     inkscape:showpageshadow="2"
     inkscape:pageopacity="0.0"
     inkscape:pagecheckerboard="0"
     inkscape:deskcolor="#d1d1d1"
     inkscape:document-units="pt"
     inkscape:zoom="1.2443899"
     inkscape:cx="342.33643"
     inkscape:cy="260.77036"
     inkscape:window-width="1920"
     inkscape:window-height="1006"
     inkscape:window-x="0"
     inkscape:window-y="0"
     inkscape:window-maximized="1"
     inkscape:current-layer="graph0" />
  <g
     id="graph0"
     class="graph"
     transform="scale(1 1) rotate(0) translate(4 442)">
    <title
       id="title1">state transitions</title>
    <polygon
       fill="#ffffff"
       stroke="transparent"
       points="-4,4 -4,-442 709,-442 709,4 -4,4"
       id="polygon1" />
    <g
       id="clust1"
       class="cluster state regular">
      <title
         id="title2">cluster_fsm_ulpi_registers_state</title>
      <path
         fill="none"
         stroke="#000000"
         stroke-width="2"
         d="M20,-8C20,-8 685,-8 685,-8 691,-8 697,-14 697,-20 697,-20 697,-418 697,-418 697,-424 691,-430 685,-430 685,-430 20,-430 20,-430 14,-430 8,-424 8,-418 8,-418 8,-20 8,-20 8,-14 14,-8 20,-8"
         id="path2" />
      <text
         text-anchor="start"
         x="287.49"
         y="-411.2"
         font-family="Helvetica,sans-Serif"
         font-size="12.00"
         fill="#000000"
         id="text2">fsm_ulpi_registers_state</text>
    </g>
    <!-- fsm_ulpi_registers_state -->
    <!-- idle_state -->
    <g
       id="node2"
       class="node state regular">
      <title
         id="title3">idle_state</title>
      <polygon
         fill="#ffffff"
         fill-opacity="0.003922"
         stroke="transparent"
         stroke-width="2"
         points="178.5,-392 105.5,-392 105.5,-356 178.5,-356 178.5,-392"
         id="polygon3" />
      <text
         text-anchor="start"
         x="116.8254"
         y="-370.2"
         font-family="Helvetica,sans-Serif"
         font-size="12.00"
         fill="#000000"
         id="text3">idle_state</text>
      <path
         fill="none"
         stroke="#000000"
         stroke-width="2"
         d="M117.8333,-357C117.8333,-357 166.1667,-357 166.1667,-357 171.8333,-357 177.5,-362.6667 177.5,-368.3333 177.5,-368.3333 177.5,-379.6667 177.5,-379.6667 177.5,-385.3333 171.8333,-391 166.1667,-391 166.1667,-391 117.8333,-391 117.8333,-391 112.1667,-391 106.5,-385.3333 106.5,-379.6667 106.5,-379.6667 106.5,-368.3333 106.5,-368.3333 106.5,-362.6667 112.1667,-357 117.8333,-357"
         id="path3" />
    </g>
    <!-- idle_state&#45;&gt;idle_state -->
    <g
       id="edge2"
       class="edge transition"
       transform="translate(0.60270499,-9.9446323)">
      <title
         id="title4">idle_state-&gt;idle_state</title>
      <path
         fill="none"
         stroke="#000000"
         d="m 174.04221,-377.66959 c 12.1875,0 26.45779,0.41959 26.45779,3.66959 0,2.2852 -4.8203,3.7669 -11.9188,4.4453"
         id="path4"
         sodipodi:nodetypes="csc" />
      <polygon
         fill="#000000"
         stroke="#000000"
         points="178.5625,-369.125 188.4033,-373.0503 188.7033,-366.0568 "
         id="polygon4" />
      <text
         text-anchor="start"
         x="200.5"
         y="-371"
         font-family="Helvetica, sans-Serif"
         font-size="10px"
         fill="#000000"
         id="text4">(i_register_request = '0')   </text>
    </g>
    <!-- wait_dir_state -->
    <g
       id="node3"
       class="node state regular">
      <title
         id="title5">wait_dir_state</title>
      <polygon
         fill="#ffffff"
         fill-opacity="0.003922"
         stroke="transparent"
         stroke-width="2"
         points="190,-310 94,-310 94,-274 190,-274 190,-310"
         id="polygon5" />
      <text
         text-anchor="start"
         x="104.9938"
         y="-288.2"
         font-family="Helvetica,sans-Serif"
         font-size="12.00"
         fill="#000000"
         id="text5">wait_dir_state</text>
      <path
         fill="none"
         stroke="#000000"
         stroke-width="2"
         d="M106.3333,-275C106.3333,-275 177.6667,-275 177.6667,-275 183.3333,-275 189,-280.6667 189,-286.3333 189,-286.3333 189,-297.6667 189,-297.6667 189,-303.3333 183.3333,-309 177.6667,-309 177.6667,-309 106.3333,-309 106.3333,-309 100.6667,-309 95,-303.3333 95,-297.6667 95,-297.6667 95,-286.3333 95,-286.3333 95,-280.6667 100.6667,-275 106.3333,-275"
         id="path5" />
    </g>
    <!-- idle_state&#45;&gt;wait_dir_state -->
    <g
       id="edge1"
       class="edge transition">
      <title
         id="title6">idle_state-&gt;wait_dir_state</title>
      <path
         fill="none"
         stroke="#000000"
         d="M142,-355.8015C142,-345.3976 142,-332.1215 142,-320.3768"
         id="path6" />
      <polygon
         fill="#000000"
         stroke="#000000"
         points="145.5001,-320.1476 142,-310.1476 138.5001,-320.1476 145.5001,-320.1476"
         id="polygon6" />
      <text
         text-anchor="start"
         x="146.21893"
         y="-330.60269"
         font-family="Helvetica, sans-Serif"
         font-size="10px"
         fill="#000000"
         id="text6">i_register_request = '1'   </text>
    </g>
    <!-- wait_dir_state&#45;&gt;wait_dir_state -->
    <g
       id="edge5"
       class="edge transition"
       transform="translate(-2.41082,-11.451395)">
      <title
         id="title7">wait_dir_state-&gt;wait_dir_state</title>
      <path
         fill="none"
         stroke="#000000"
         d="M 186.47767,-294.4124 C 198.96657,-294.2641 212,-293.46 212,-292 c 0,1.0265 -4.6557,1.7288 -11.7614,2.1069"
         id="path7"
         sodipodi:nodetypes="csc" />
      <polygon
         fill="#000000"
         stroke="#000000"
         points="199.984,-293.3871 200.1948,-286.3903 190.0939,-289.5876 "
         id="polygon7" />
      <text
         text-anchor="start"
         x="212"
         y="-301"
         font-family="Helvetica, sans-Serif"
         font-size="10px"
         fill="#000000"
         id="text7">i_ulpi.dir = '0'   </text>
      <text
         text-anchor="start"
         x="212"
         y="-289"
         font-family="Helvetica, sans-Serif"
         font-size="10px"
         fill="#000000"
         id="text8">(address_head_r is UNKNOWN )   </text>
      <text
         text-anchor="start"
         x="212"
         y="-277"
         font-family="Helvetica, sans-Serif"
         font-size="10px"
         fill="#000000"
         id="text9" />
    </g>
    <!-- wait_dir_state&#45;&gt;wait_dir_state -->
    <g
       id="edge6"
       class="edge transition">
      <title
         id="title9">wait_dir_state-&gt;wait_dir_state</title>
      <path
         fill="none"
         stroke="#000000"
         d="M190.1979,-295.0763C290.5583,-298.2496 505.648,-297.2241 505.648,-292 505.648,-286.9442 304.1981,-285.8209 200.2471,-288.63"
         id="path9" />
      <polygon
         fill="#000000"
         stroke="#000000"
         points="200.0914,-285.1329 190.1979,-288.9237 200.2959,-292.13 200.0914,-285.1329"
         id="polygon9" />
      <text
         text-anchor="start"
         x="505.64801"
         y="-289"
         font-family="Helvetica, sans-Serif"
         font-size="10px"
         fill="#000000"
         id="text10">(i_ulpi.dir = '1')   </text>
    </g>
    <!-- cmd_write_state -->
    <g
       id="node4"
       class="node state regular">
      <title
         id="title10">cmd_write_state</title>
      <polygon
         fill="#ffffff"
         fill-opacity="0.003922"
         stroke="transparent"
         stroke-width="2"
         points="171.5,-216 62.5,-216 62.5,-180 171.5,-180 171.5,-216"
         id="polygon10" />
      <text
         text-anchor="start"
         x="73.8278"
         y="-194.2"
         font-family="Helvetica,sans-Serif"
         font-size="12.00"
         fill="#000000"
         id="text11">cmd_write_state</text>
      <path
         fill="none"
         stroke="#000000"
         stroke-width="2"
         d="M74.8333,-181C74.8333,-181 159.1667,-181 159.1667,-181 164.8333,-181 170.5,-186.6667 170.5,-192.3333 170.5,-192.3333 170.5,-203.6667 170.5,-203.6667 170.5,-209.3333 164.8333,-215 159.1667,-215 159.1667,-215 74.8333,-215 74.8333,-215 69.1667,-215 63.5,-209.3333 63.5,-203.6667 63.5,-203.6667 63.5,-192.3333 63.5,-192.3333 63.5,-186.6667 69.1667,-181 74.8333,-181"
         id="path11" />
    </g>
    <!-- wait_dir_state&#45;&gt;cmd_write_state -->
    <g
       id="edge3"
       class="edge transition"
       transform="translate(4.8216399,-1.20541)">
      <title
         id="title11">wait_dir_state-&gt;cmd_write_state</title>
      <path
         fill="none"
         stroke="#000000"
         d="m 95.1565,-273.9369 c -6.5748,4.5408 -12.4506,10.1215 -16.4705,16.9369 -5.419,9.1876 -4.3035,14.24 0,24 1.4244,3.2304 3.3105,6.292 5.4836,9.1607"
         id="path12" />
      <polygon
         fill="#000000"
         stroke="#000000"
         points="90.9086,-216.2853 81.6397,-221.4175 86.8632,-226.0774 "
         id="polygon12" />
      <text
         text-anchor="start"
         x="78"
         y="-248"
         font-family="Helvetica, sans-Serif"
         font-size="10px"
         fill="#000000"
         id="text12">address_head_r = ULPI_CMD_HEAD_REGISTER_WRITE   </text>
      <text
         text-anchor="start"
         x="78"
         y="-236"
         font-family="Helvetica, sans-Serif"
         font-size="10px"
         fill="#000000"
         id="text13">i_ulpi.dir = '0'   </text>
    </g>
    <!-- cmd_read_state -->
    <g
       id="node7"
       class="node state regular">
      <title
         id="title13">cmd_read_state</title>
      <polygon
         fill="#ffffff"
         fill-opacity="0.003922"
         stroke="transparent"
         stroke-width="2"
         points="492,-216 384,-216 384,-180 492,-180 492,-216"
         id="polygon13" />
      <text
         text-anchor="start"
         x="394.9872"
         y="-194.2"
         font-family="Helvetica,sans-Serif"
         font-size="12.00"
         fill="#000000"
         id="text14">cmd_read_state</text>
      <path
         fill="none"
         stroke="#000000"
         stroke-width="2"
         d="M396.3333,-181C396.3333,-181 479.6667,-181 479.6667,-181 485.3333,-181 491,-186.6667 491,-192.3333 491,-192.3333 491,-203.6667 491,-203.6667 491,-209.3333 485.3333,-215 479.6667,-215 479.6667,-215 396.3333,-215 396.3333,-215 390.6667,-215 385,-209.3333 385,-203.6667 385,-203.6667 385,-192.3333 385,-192.3333 385,-186.6667 390.6667,-181 396.3333,-181"
         id="path14" />
    </g>
    <!-- wait_dir_state&#45;&gt;cmd_read_state -->
    <g
       id="edge4"
       class="edge transition">
      <title
         id="title14">wait_dir_state-&gt;cmd_read_state</title>
      <path
         fill="none"
         stroke="#000000"
         d="M190.2146,-289.654C233.3944,-286.2235 297.7721,-277.7796 350,-257 361.5149,-252.4186 385.2891,-236.3135 405.2266,-222.0855"
         id="path15" />
      <polygon
         fill="#000000"
         stroke="#000000"
         points="407.4153,-224.8226 413.4894,-216.1417 403.3276,-219.14 407.4153,-224.8226"
         id="polygon15" />
      <text
         text-anchor="start"
         x="389"
         y="-248"
         font-family="Helvetica,sans-Serif"
         font-size="10.00"
         fill="#000000"
         id="text15">address_head_r = ULPI_CMD_HEAD_REGISTER_READ   </text>
      <text
         text-anchor="start"
         x="389"
         y="-236"
         font-family="Helvetica,sans-Serif"
         font-size="10.00"
         fill="#000000"
         id="text16">i_ulpi.dir = '0'   </text>
    </g>
    <!-- cmd_write_state&#45;&gt;cmd_write_state -->
    <g
       id="edge8"
       class="edge transition">
      <title
         id="title16">cmd_write_state-&gt;cmd_write_state</title>
      <path
         fill="none"
         stroke="#000000"
         d="M171.6677,-202.7676C184.2542,-202.3568 193.5,-200.7676 193.5,-198 193.5,-196.054 188.929,-194.6907 181.8398,-193.9099"
         id="path16" />
      <polygon
         fill="#000000"
         stroke="#000000"
         points="181.8782,-190.4048 171.6677,-193.2324 181.413,-197.3893 181.8782,-190.4048"
         id="polygon16" />
      <text
         text-anchor="start"
         x="193.5"
         y="-195"
         font-family="Helvetica, sans-Serif"
         font-size="10px"
         fill="#000000"
         id="text17">(i_ulpi.nxt = '0')   </text>
    </g>
    <!-- write_reg_state -->
    <g
       id="node5"
       class="node state regular">
      <title
         id="title17">write_reg_state</title>
      <polygon
         fill="#ffffff"
         fill-opacity="0.003922"
         stroke="transparent"
         stroke-width="2"
         points="166,-134 62,-134 62,-98 166,-98 166,-134"
         id="polygon17" />
      <text
         text-anchor="start"
         x="72.9924"
         y="-112.2"
         font-family="Helvetica,sans-Serif"
         font-size="12.00"
         fill="#000000"
         id="text18">write_reg_state</text>
      <path
         fill="none"
         stroke="#000000"
         stroke-width="2"
         d="M74.3333,-99C74.3333,-99 153.6667,-99 153.6667,-99 159.3333,-99 165,-104.6667 165,-110.3333 165,-110.3333 165,-121.6667 165,-121.6667 165,-127.3333 159.3333,-133 153.6667,-133 153.6667,-133 74.3333,-133 74.3333,-133 68.6667,-133 63,-127.3333 63,-121.6667 63,-121.6667 63,-110.3333 63,-110.3333 63,-104.6667 68.6667,-99 74.3333,-99"
         id="path18" />
    </g>
    <!-- cmd_write_state&#45;&gt;write_reg_state -->
    <g
       id="edge7"
       class="edge transition">
      <title
         id="title18">cmd_write_state-&gt;write_reg_state</title>
      <path
         fill="none"
         stroke="#000000"
         d="M116.3342,-179.8015C115.9536,-169.3976 115.4679,-156.1215 115.0382,-144.3768"
         id="path19" />
      <polygon
         fill="#000000"
         stroke="#000000"
         points="118.5273,-144.0129 114.6639,-134.1476 111.532,-144.2689 118.5273,-144.0129"
         id="polygon19" />
      <text
         text-anchor="start"
         x="121.02705"
         y="-155.80812"
         font-family="Helvetica, sans-Serif"
         font-size="10px"
         fill="#000000"
         id="text19">i_ulpi.nxt = '1'   </text>
    </g>
    <!-- stp_state -->
    <g
       id="node6"
       class="node state regular">
      <title
         id="title19">stp_state</title>
      <polygon
         fill="#ffffff"
         fill-opacity="0.003922"
         stroke="transparent"
         stroke-width="2"
         points="110,-52 40,-52 40,-16 110,-16 110,-52"
         id="polygon20" />
      <text
         text-anchor="start"
         x="50.6562"
         y="-30.2"
         font-family="Helvetica,sans-Serif"
         font-size="12.00"
         fill="#000000"
         id="text20">stp_state</text>
      <path
         fill="none"
         stroke="#000000"
         stroke-width="2"
         d="M52.3333,-17C52.3333,-17 97.6667,-17 97.6667,-17 103.3333,-17 109,-22.6667 109,-28.3333 109,-28.3333 109,-39.6667 109,-39.6667 109,-45.3333 103.3333,-51 97.6667,-51 97.6667,-51 52.3333,-51 52.3333,-51 46.6667,-51 41,-45.3333 41,-39.6667 41,-39.6667 41,-28.3333 41,-28.3333 41,-22.6667 46.6667,-17 52.3333,-17"
         id="path20" />
    </g>
    <!-- write_reg_state&#45;&gt;stp_state -->
    <g
       id="edge9"
       class="edge transition">
      <title
         id="title20">write_reg_state-&gt;stp_state</title>
      <path
         fill="none"
         stroke="#000000"
         d="M105.3446,-97.8015C100.245,-87.0791 93.6943,-73.306 87.9854,-61.3026"
         id="path21" />
      <polygon
         fill="#000000"
         stroke="#000000"
         points="91.087,-59.6749 83.6312,-52.1476 84.7656,-62.6815 91.087,-59.6749"
         id="polygon21" />
      <text
         text-anchor="middle"
         x="98.3895"
         y="-72"
         font-family="Helvetica,sans-Serif"
         font-size="10.00"
         fill="#000000"
         id="text21" />
    </g>
    <!-- stp_state&#45;&gt;idle_state -->
    <g
       id="edge10"
       class="edge transition">
      <title
         id="title21">stp_state-&gt;idle_state</title>
      <path
         fill="none"
         stroke="#000000"
         d="M48.9011,-52.06C42.7786,-58.403 38,-66.1791 38,-75 38,-171.5 38,-171.5 38,-171.5 38,-214.3076 17,-222.6924 17,-265.5 17,-333 17,-333 17,-333 17,-350.0453 59.4962,-361.1522 94.9321,-367.4508"
         id="path22" />
      <polygon
         fill="#000000"
         stroke="#000000"
         points="94.7293,-370.9659 105.172,-369.1766 95.8927,-364.0632 94.7293,-370.9659"
         id="polygon22" />
      <text
         text-anchor="middle"
         x="38.3895"
         y="-195"
         font-family="Helvetica,sans-Serif"
         font-size="10.00"
         fill="#000000"
         id="text22" />
    </g>
    <!-- cmd_read_state&#45;&gt;cmd_read_state -->
    <g
       id="edge12"
       class="edge transition">
      <title
         id="title22">cmd_read_state-&gt;cmd_read_state</title>
      <path
         fill="none"
         stroke="#000000"
         d="M492.3104,-202.7676C504.8147,-202.3568 514,-200.7676 514,-198 514,-196.054 509.4589,-194.6907 502.416,-193.9099"
         id="path23" />
      <polygon
         fill="#000000"
         stroke="#000000"
         points="502.5221,-190.4092 492.3104,-193.2324 502.0539,-197.3935 502.5221,-190.4092"
         id="polygon23" />
      <text
         text-anchor="start"
         x="514"
         y="-195"
         font-family="Helvetica, sans-Serif"
         font-size="10px"
         fill="#000000"
         id="text23">(i_ulpi.nxt = '0')   </text>
    </g>
    <!-- read_reg_state -->
    <g
       id="node8"
       class="node state regular">
      <title
         id="title23">read_reg_state</title>
      <polygon
         fill="#ffffff"
         fill-opacity="0.003922"
         stroke="transparent"
         stroke-width="2"
         points="589,-134 487,-134 487,-98 589,-98 589,-134"
         id="polygon24" />
      <text
         text-anchor="start"
         x="497.6518"
         y="-112.2"
         font-family="Helvetica,sans-Serif"
         font-size="12.00"
         fill="#000000"
         id="text24">read_reg_state</text>
      <path
         fill="none"
         stroke="#000000"
         stroke-width="2"
         d="M499.3333,-99C499.3333,-99 576.6667,-99 576.6667,-99 582.3333,-99 588,-104.6667 588,-110.3333 588,-110.3333 588,-121.6667 588,-121.6667 588,-127.3333 582.3333,-133 576.6667,-133 576.6667,-133 499.3333,-133 499.3333,-133 493.6667,-133 488,-127.3333 488,-121.6667 488,-121.6667 488,-110.3333 488,-110.3333 488,-104.6667 493.6667,-99 499.3333,-99"
         id="path24" />
    </g>
    <!-- cmd_read_state&#45;&gt;read_reg_state -->
    <g
       id="edge11"
       class="edge transition">
      <title
         id="title24">cmd_read_state-&gt;read_reg_state</title>
      <path
         fill="none"
         stroke="#000000"
         d="M460.1932,-179.8015C474.1756,-168.336 492.4119,-153.3822 507.7147,-140.8339"
         id="path25" />
      <polygon
         fill="#000000"
         stroke="#000000"
         points="510.3554,-143.1949 515.8688,-134.1476 505.9168,-137.782 510.3554,-143.1949"
         id="polygon25" />
      <text
         text-anchor="start"
         x="494"
         y="-154"
         font-family="Helvetica,sans-Serif"
         font-size="10.00"
         fill="#000000"
         id="text25">i_ulpi.nxt = '1'   </text>
    </g>
    <!-- read_reg_state&#45;&gt;idle_state -->
    <g
       id="edge13"
       class="edge transition">
      <title
         id="title25">read_reg_state-&gt;idle_state</title>
      <path
         fill="none"
         stroke="#000000"
         d="M589.3479,-120.5114C632.0938,-125.7341 686,-136.4035 686,-157 686,-333 686,-333 686,-333 686,-345.4202 320.5702,-365.0228 188.7239,-371.6911"
         id="path26" />
      <polygon
         fill="#000000"
         stroke="#000000"
         points="188.3494,-368.2055 178.5381,-372.204 188.7015,-375.1966 188.3494,-368.2055"
         id="polygon26" />
      <text
         text-anchor="middle"
         x="687.3895"
         y="-242"
         font-family="Helvetica,sans-Serif"
         font-size="10.00"
         fill="#000000"
         id="text26" />
    </g>
  </g>
</svg>
