<?xml version="1.0" encoding="UTF-8" standalone="no"?>
<!-- Generated by graphviz version 2.40.1 (20161225.0304)
 -->

<!-- Title: state transitions Pages: 1 -->

<svg
   width="1085pt"
   height="694pt"
   viewBox="0.00 0.00 1085.00 694.00"
   version="1.1"
   id="svg49"
   sodipodi:docname="usb_config.svg"
   inkscape:version="1.3.2 (091e20ef0f, 2023-11-25, custom)"
   inkscape:export-filename="usb_config.png"
   inkscape:export-xdpi="288"
   inkscape:export-ydpi="288"
   xmlns:inkscape="http://www.inkscape.org/namespaces/inkscape"
   xmlns:sodipodi="http://sodipodi.sourceforge.net/DTD/sodipodi-0.dtd"
   xmlns="http://www.w3.org/2000/svg"
   xmlns:svg="http://www.w3.org/2000/svg">
  <defs
     id="defs49">
    <rect
       x="1161.1243"
       y="568.63905"
       width="226.84418"
       height="103.33333"
       id="rect52" />
    <rect
       x="1272.4063"
       y="678.69823"
       width="105.77909"
       height="110.67061"
       id="rect51" />
    <rect
       x="1394.6943"
       y="681.14398"
       width="165.7002"
       height="102.11045"
       id="rect50" />
  </defs>
  <sodipodi:namedview
     id="namedview49"
     pagecolor="#ffffff"
     bordercolor="#666666"
     borderopacity="1.0"
     inkscape:showpageshadow="2"
     inkscape:pageopacity="0.0"
     inkscape:pagecheckerboard="0"
     inkscape:deskcolor="#d1d1d1"
     inkscape:document-units="pt"
     inkscape:zoom="0.81774194"
     inkscape:cx="717.21893"
     inkscape:cy="427.39645"
     inkscape:window-width="1920"
     inkscape:window-height="1006"
     inkscape:window-x="0"
     inkscape:window-y="0"
     inkscape:window-maximized="1"
     inkscape:current-layer="graph0" />
  <g
     id="graph0"
     class="graph"
     transform="scale(1 1) rotate(0) translate(4 690)">
    <title
       id="title1">state transitions</title>
    <polygon
       fill="#ffffff"
       stroke="transparent"
       points="-4,4 -4,-690 1081,-690 1081,4 -4,4"
       id="polygon1" />
    <g
       id="clust1"
       class="cluster state regular">
      <title
         id="title2">cluster_fsm_usb_config_state</title>
      <path
         fill="none"
         stroke="#000000"
         stroke-width="2"
         d="M20,-8C20,-8 1057,-8 1057,-8 1063,-8 1069,-14 1069,-20 1069,-20 1069,-666 1069,-666 1069,-672 1063,-678 1057,-678 1057,-678 20,-678 20,-678 14,-678 8,-672 8,-666 8,-666 8,-20 8,-20 8,-14 14,-8 20,-8"
         id="path2" />
      <text
         text-anchor="start"
         x="480.1476"
         y="-659.2"
         font-family="Helvetica,sans-Serif"
         font-size="12.00"
         fill="#000000"
         id="text2">fsm_usb_config_state</text>
    </g>
    <!-- fsm_usb_config_state -->
    <!-- idle_state -->
    <g
       id="node2"
       class="node state regular">
      <title
         id="title3">idle_state</title>
      <polygon
         fill="#ffffff"
         fill-opacity="0.003922"
         stroke="transparent"
         stroke-width="2"
         points="363.5,-558 290.5,-558 290.5,-522 363.5,-522 363.5,-558"
         id="polygon3" />
      <text
         text-anchor="start"
         x="301.8254"
         y="-536.2"
         font-family="Helvetica,sans-Serif"
         font-size="12.00"
         fill="#000000"
         id="text3">idle_state</text>
      <path
         fill="none"
         stroke="#000000"
         stroke-width="2"
         d="M302.8333,-523C302.8333,-523 351.1667,-523 351.1667,-523 356.8333,-523 362.5,-528.6667 362.5,-534.3333 362.5,-534.3333 362.5,-545.6667 362.5,-545.6667 362.5,-551.3333 356.8333,-557 351.1667,-557 351.1667,-557 302.8333,-557 302.8333,-557 297.1667,-557 291.5,-551.3333 291.5,-545.6667 291.5,-545.6667 291.5,-534.3333 291.5,-534.3333 291.5,-528.6667 297.1667,-523 302.8333,-523"
         id="path3" />
    </g>
    <!-- idle_state&#45;&gt;idle_state -->
    <g
       id="edge2"
       class="edge transition"
       transform="translate(0.64852989,-12.322068)">
      <title
         id="title4">idle_state-&gt;idle_state</title>
      <path
         fill="none"
         stroke="#000000"
         d="m 357.14238,-541.20636 c 12.1875,0 28.35762,-2.04364 28.35762,1.20636 0,2.2852 -4.8203,3.7669 -11.9188,4.4453"
         id="path4"
         sodipodi:nodetypes="csc" />
      <polygon
         fill="#000000"
         stroke="#000000"
         points="363.5625,-535.125 373.4033,-539.0503 373.7033,-532.0568 "
         id="polygon4" />
      <text
         text-anchor="start"
         x="385.5"
         y="-537"
         font-family="Helvetica, sans-Serif"
         font-size="10px"
         fill="#000000"
         id="text4">(i_receive_busy = '0')   </text>
    </g>
    <!-- pid_state -->
    <g
       id="node3"
       class="node state regular">
      <title
         id="title5">pid_state</title>
      <polygon
         fill="#ffffff"
         fill-opacity="0.003922"
         stroke="transparent"
         stroke-width="2"
         points="525,-464 455,-464 455,-428 525,-428 525,-464"
         id="polygon5" />
      <text
         text-anchor="start"
         x="465.6568"
         y="-442.2"
         font-family="Helvetica,sans-Serif"
         font-size="12.00"
         fill="#000000"
         id="text5">pid_state</text>
      <path
         fill="none"
         stroke="#000000"
         stroke-width="2"
         d="M467.3333,-429C467.3333,-429 512.6667,-429 512.6667,-429 518.3333,-429 524,-434.6667 524,-440.3333 524,-440.3333 524,-451.6667 524,-451.6667 524,-457.3333 518.3333,-463 512.6667,-463 512.6667,-463 467.3333,-463 467.3333,-463 461.6667,-463 456,-457.3333 456,-451.6667 456,-451.6667 456,-440.3333 456,-440.3333 456,-434.6667 461.6667,-429 467.3333,-429"
         id="path5" />
    </g>
    <!-- idle_state&#45;&gt;pid_state -->
    <g
       id="edge1"
       class="edge transition">
      <title
         id="title6">idle_state-&gt;pid_state</title>
      <path
         fill="none"
         stroke="#000000"
         d="M334.8554,-521.9958C341.4973,-508.8008 352.2328,-491.4375 366.609,-481 389.4934,-464.3854 420.0404,-455.6417 445.015,-451.0486"
         id="path6" />
      <polygon
         fill="#000000"
         stroke="#000000"
         points="445.7023,-454.4823 454.9858,-449.3768 444.5447,-447.5787 445.7023,-454.4823"
         id="polygon6" />
      <text
         text-anchor="start"
         x="366"
         y="-490"
         font-family="Helvetica,sans-Serif"
         font-size="10.00"
         fill="#000000"
         id="text6">i_receive_busy = '1'   </text>
    </g>
    <!-- pid_state&#45;&gt;idle_state -->
    <g
       id="edge5"
       class="edge transition">
      <title
         id="title7">pid_state-&gt;idle_state</title>
      <path
         fill="none"
         stroke="#000000"
         d="M486.4865,-464.0142C482.9872,-477.2146 476.2979,-494.5801 464,-505 450.3787,-516.5413 408.009,-526.2665 373.9566,-532.5135"
         id="path7" />
      <polygon
         fill="#000000"
         stroke="#000000"
         points="372.9291,-529.1412 363.6967,-534.3387 374.1551,-536.033 372.9291,-529.1412"
         id="polygon7" />
      <text
         text-anchor="start"
         x="480"
         y="-496"
         font-family="Helvetica,sans-Serif"
         font-size="10.00"
         fill="#000000"
         id="text7">r_receive_pid = USB_PID_ACK   </text>
      <text
         text-anchor="start"
         x="480"
         y="-484"
         font-family="Helvetica,sans-Serif"
         font-size="10.00"
         fill="#000000"
         id="text8">or r_receive_pid = USB_PID_NAK   </text>
    </g>
    <!-- receive_token_state -->
    <g
       id="node4"
       class="node state regular">
      <title
         id="title8">receive_token_state</title>
      <polygon
         fill="#ffffff"
         fill-opacity="0.003922"
         stroke="transparent"
         stroke-width="2"
         points="460.5,-358 331.5,-358 331.5,-322 460.5,-322 460.5,-358"
         id="polygon8" />
      <text
         text-anchor="start"
         x="342.815"
         y="-336.2"
         font-family="Helvetica,sans-Serif"
         font-size="12.00"
         fill="#000000"
         id="text9">receive_token_state</text>
      <path
         fill="none"
         stroke="#000000"
         stroke-width="2"
         d="M343.8333,-323C343.8333,-323 448.1667,-323 448.1667,-323 453.8333,-323 459.5,-328.6667 459.5,-334.3333 459.5,-334.3333 459.5,-345.6667 459.5,-345.6667 459.5,-351.3333 453.8333,-357 448.1667,-357 448.1667,-357 343.8333,-357 343.8333,-357 338.1667,-357 332.5,-351.3333 332.5,-345.6667 332.5,-345.6667 332.5,-334.3333 332.5,-334.3333 332.5,-328.6667 338.1667,-323 343.8333,-323"
         id="path9" />
    </g>
    <!-- pid_state&#45;&gt;receive_token_state -->
    <g
       id="edge3"
       class="edge transition">
      <title
         id="title9">pid_state-&gt;receive_token_state</title>
      <path
         fill="none"
         stroke="#000000"
         d="M467.6199,-427.878C461.6397,-422.6621 455.3362,-416.8069 449.913,-411 436.8779,-397.0428 423.8835,-380.0455 413.9189,-366.1813"
         id="path10" />
      <polygon
         fill="#000000"
         stroke="#000000"
         points="416.7677,-364.148 408.1327,-358.009 411.0547,-368.1929 416.7677,-364.148"
         id="polygon10" />
      <text
         text-anchor="start"
         x="449"
         y="-402"
         font-family="Helvetica,sans-Serif"
         font-size="10.00"
         fill="#000000"
         id="text10">r_receive_pid = USB_PID_OUT   </text>
      <text
         text-anchor="start"
         x="449"
         y="-390"
         font-family="Helvetica,sans-Serif"
         font-size="10.00"
         fill="#000000"
         id="text11">or r_receive_pid = USB_PID_IN   </text>
      <text
         text-anchor="start"
         x="449"
         y="-378"
         font-family="Helvetica,sans-Serif"
         font-size="10.00"
         fill="#000000"
         id="text12">or r_receive_pid = USB_PID_SETUP   </text>
    </g>
    <!-- receive_request_state -->
    <g
       id="node7"
       class="node state regular">
      <title
         id="title12">receive_request_state</title>
      <polygon
         fill="#ffffff"
         fill-opacity="0.003922"
         stroke="transparent"
         stroke-width="2"
         points="758,-358 618,-358 618,-322 758,-322 758,-358"
         id="polygon12" />
      <text
         text-anchor="start"
         x="628.9822"
         y="-336.2"
         font-family="Helvetica,sans-Serif"
         font-size="12.00"
         fill="#000000"
         id="text13">receive_request_state</text>
      <path
         fill="none"
         stroke="#000000"
         stroke-width="2"
         d="M630.3333,-323C630.3333,-323 745.6667,-323 745.6667,-323 751.3333,-323 757,-328.6667 757,-334.3333 757,-334.3333 757,-345.6667 757,-345.6667 757,-351.3333 751.3333,-357 745.6667,-357 745.6667,-357 630.3333,-357 630.3333,-357 624.6667,-357 619,-351.3333 619,-345.6667 619,-345.6667 619,-334.3333 619,-334.3333 619,-328.6667 624.6667,-323 630.3333,-323"
         id="path13" />
    </g>
    <!-- pid_state&#45;&gt;receive_request_state -->
    <g
       id="edge4"
       class="edge transition">
      <title
         id="title13">pid_state-&gt;receive_request_state</title>
      <path
         fill="none"
         stroke="#000000"
         d="M525.1901,-442.4402C553.5588,-438.2982 593.5946,-429.4892 624,-411 642.3722,-399.8281 658.5418,-381.777 670.032,-366.6722"
         id="path14" />
      <polygon
         fill="#000000"
         stroke="#000000"
         points="673.1558,-368.3301 676.2378,-358.1934 667.5072,-364.1957 673.1558,-368.3301"
         id="polygon14" />
      <text
         text-anchor="start"
         x="663"
         y="-396"
         font-family="Helvetica,sans-Serif"
         font-size="10.00"
         fill="#000000"
         id="text14">r_receive_pid = USB_PID_DATA0   </text>
      <text
         text-anchor="start"
         x="663"
         y="-384"
         font-family="Helvetica,sans-Serif"
         font-size="10.00"
         fill="#000000"
         id="text15">or r_receive_pid = USB_PID_DATA1   </text>
    </g>
    <!-- send_nak_state -->
    <g
       id="node13"
       class="node state regular">
      <title
         id="title15">send_nak_state</title>
      <polygon
         fill="#ffffff"
         fill-opacity="0.003922"
         stroke="transparent"
         stroke-width="2"
         points="461,-52 355,-52 355,-16 461,-16 461,-52"
         id="polygon15" />
      <text
         text-anchor="start"
         x="365.6466"
         y="-30.2"
         font-family="Helvetica,sans-Serif"
         font-size="12.00"
         fill="#000000"
         id="text16">send_nak_state</text>
      <path
         fill="none"
         stroke="#000000"
         stroke-width="2"
         d="M367.3333,-17C367.3333,-17 448.6667,-17 448.6667,-17 454.3333,-17 460,-22.6667 460,-28.3333 460,-28.3333 460,-39.6667 460,-39.6667 460,-45.3333 454.3333,-51 448.6667,-51 448.6667,-51 367.3333,-51 367.3333,-51 361.6667,-51 356,-45.3333 356,-39.6667 356,-39.6667 356,-28.3333 356,-28.3333 356,-22.6667 361.6667,-17 367.3333,-17"
         id="path16" />
    </g>
    <!-- pid_state&#45;&gt;send_nak_state -->
    <g
       id="edge6"
       class="edge transition">
      <title
         id="title16">pid_state-&gt;send_nak_state</title>
      <path
         fill="none"
         stroke="#000000"
         d="M525.0493,-445.5751C602.3997,-444.1469 785.1947,-437.9362 840,-411 849.8756,-406.1463 857,-404.0039 857,-393 857,-393 857,-393 857,-284.5 857,-242.7254 850.3122,-226.624 873.685,-192 923.3417,-118.4395 1091.9718,-133.4933 1031,-69 1026.2267,-63.951 628.6579,-44.5007 471.196,-36.9865"
         id="path17" />
      <polygon
         fill="#000000"
         stroke="#000000"
         points="471.3335,-33.4892 461.1782,-36.5091 471.0002,-40.4813 471.3335,-33.4892"
         id="polygon17" />
      <text
         text-anchor="start"
         x="873"
         y="-267"
         font-family="Helvetica, sans-Serif"
         font-size="10px"
         fill="#000000"
         id="text17">r_receive_pid = USB_PID_UNKNOWN   </text>
    </g>
    <!-- receive_token_state&#45;&gt;receive_token_state -->
    <g
       id="edge8"
       class="edge transition"
       transform="translate(-0.91715976,-0.91715976)">
      <title
         id="title23">receive_token_state-&gt;receive_token_state</title>
      <path
         fill="none"
         stroke="#000000"
         d="m 460.5072,-344.6739 c 12.8381,0.5261 21.9928,2.0841 21.9928,4.6739 0,1.821 -4.526,3.1318 -11.6759,3.9325"
         id="path23" />
      <polygon
         fill="#000000"
         stroke="#000000"
         points="460.5072,-335.3261 470.2306,-339.534 470.7324,-332.552 "
         id="polygon23" />
      <text
         text-anchor="start"
         x="482.5"
         y="-337"
         font-family="Helvetica, sans-Serif"
         font-size="10px"
         fill="#000000"
         id="text24">(i_receive_hold = '1')   </text>
    </g>
    <!-- receive_token_state1 -->
    <g
       id="node5"
       class="node state regular">
      <title
         id="title24">receive_token_state1</title>
      <polygon
         fill="#ffffff"
         fill-opacity="0.003922"
         stroke="transparent"
         stroke-width="2"
         points="464,-252 328,-252 328,-216 464,-216 464,-252"
         id="polygon24" />
      <text
         text-anchor="start"
         x="338.9796"
         y="-230.2"
         font-family="Helvetica,sans-Serif"
         font-size="12.00"
         fill="#000000"
         id="text25">receive_token_state1</text>
      <path
         fill="none"
         stroke="#000000"
         stroke-width="2"
         d="M340.3333,-217C340.3333,-217 451.6667,-217 451.6667,-217 457.3333,-217 463,-222.6667 463,-228.3333 463,-228.3333 463,-239.6667 463,-239.6667 463,-245.3333 457.3333,-251 451.6667,-251 451.6667,-251 340.3333,-251 340.3333,-251 334.6667,-251 329,-245.3333 329,-239.6667 329,-239.6667 329,-228.3333 329,-228.3333 329,-222.6667 334.6667,-217 340.3333,-217"
         id="path25" />
    </g>
    <!-- receive_token_state&#45;&gt;receive_token_state1 -->
    <g
       id="edge7"
       class="edge transition">
      <title
         id="title25">receive_token_state-&gt;receive_token_state1</title>
      <path
         fill="none"
         stroke="#000000"
         d="M396,-321.5362C396,-305.1966 396,-281.1 396,-262.3232"
         id="path26" />
      <polygon
         fill="#000000"
         stroke="#000000"
         points="399.5001,-262.2522 396,-252.2522 392.5001,-262.2522 399.5001,-262.2522"
         id="polygon26" />
      <text
         text-anchor="start"
         x="399.66864"
         y="-295.08286"
         font-family="Helvetica, sans-Serif"
         font-size="10px"
         fill="#000000"
         id="text26">i_receive_hold = '0'   </text>
    </g>
    <!-- receive_token_state1&#45;&gt;receive_token_state1 -->
    <g
       id="edge10"
       class="edge transition">
      <title
         id="title26">receive_token_state1-&gt;receive_token_state1</title>
      <path
         fill="none"
         stroke="#000000"
         d="M464.2858,-242.8938C477.0269,-241.7986 486,-238.834 486,-234 486,-230.6011 481.5638,-228.1264 474.5009,-226.5759"
         id="path27" />
      <polygon
         fill="#000000"
         stroke="#000000"
         points="474.6824,-223.0661 464.2858,-225.1062 473.6855,-229.9947 474.6824,-223.0661"
         id="polygon27" />
      <text
         text-anchor="start"
         x="486"
         y="-231"
         font-family="Helvetica,sans-Serif"
         font-size="10.00"
         fill="#000000"
         id="text27">not (i_receive_hold = '0')   </text>
    </g>
    <!-- receive_token_state2 -->
    <g
       id="node6"
       class="node state regular">
      <title
         id="title27">receive_token_state2</title>
      <polygon
         fill="#ffffff"
         fill-opacity="0.003922"
         stroke="transparent"
         stroke-width="2"
         points="407,-146 271,-146 271,-110 407,-110 407,-146"
         id="polygon28" />
      <text
         text-anchor="start"
         x="281.9796"
         y="-124.2"
         font-family="Helvetica,sans-Serif"
         font-size="12.00"
         fill="#000000"
         id="text28">receive_token_state2</text>
      <path
         fill="none"
         stroke="#000000"
         stroke-width="2"
         d="M283.3333,-111C283.3333,-111 394.6667,-111 394.6667,-111 400.3333,-111 406,-116.6667 406,-122.3333 406,-122.3333 406,-133.6667 406,-133.6667 406,-139.3333 400.3333,-145 394.6667,-145 394.6667,-145 283.3333,-145 283.3333,-145 277.6667,-145 272,-139.3333 272,-133.6667 272,-133.6667 272,-122.3333 272,-122.3333 272,-116.6667 277.6667,-111 283.3333,-111"
         id="path28" />
    </g>
    <!-- receive_token_state1&#45;&gt;receive_token_state2 -->
    <g
       id="edge9"
       class="edge transition">
      <title
         id="title28">receive_token_state1-&gt;receive_token_state2</title>
      <path
         fill="none"
         stroke="#000000"
         d="M386.0714,-215.5362C377.1215,-198.8926 363.8438,-174.2007 353.6699,-155.2808"
         id="path29" />
      <polygon
         fill="#000000"
         stroke="#000000"
         points="356.6335,-153.402 348.8149,-146.2522 350.4684,-156.7172 356.6335,-153.402"
         id="polygon29" />
      <text
         text-anchor="start"
         x="364"
         y="-166"
         font-family="Helvetica,sans-Serif"
         font-size="10.00"
         fill="#000000"
         id="text29">i_receive_hold = '0'   </text>
    </g>
    <!-- receive_token_state2&#45;&gt;idle_state -->
    <g
       id="edge11"
       class="edge transition">
      <title
         id="title29">receive_token_state2-&gt;idle_state</title>
      <path
         fill="none"
         stroke="#000000"
         d="M315.3859,-146.0333C309.5841,-152.4709 305,-160.3077 305,-169 305,-493 305,-493 305,-493 305,-499.6219 306.8135,-506.3157 309.3992,-512.4942"
         id="path30" />
      <polygon
         fill="#000000"
         stroke="#000000"
         points="306.3786,-514.2819 313.9482,-521.6948 312.6535,-511.1794 306.3786,-514.2819"
         id="polygon30" />
      <text
         text-anchor="middle"
         x="306.3895"
         y="-337"
         font-family="Helvetica,sans-Serif"
         font-size="10.00"
         fill="#000000"
         id="text30" />
    </g>
    <!-- receive_request_state1 -->
    <g
       id="node8"
       class="node state regular">
      <title
         id="title30">receive_request_state1</title>
      <polygon
         fill="#ffffff"
         fill-opacity="0.003922"
         stroke="transparent"
         stroke-width="2"
         points="767,-252 621,-252 621,-216 767,-216 767,-252"
         id="polygon31" />
      <text
         text-anchor="start"
         x="631.6468"
         y="-230.2"
         font-family="Helvetica,sans-Serif"
         font-size="12.00"
         fill="#000000"
         id="text31">receive_request_state1</text>
      <path
         fill="none"
         stroke="#000000"
         stroke-width="2"
         d="M633.3333,-217C633.3333,-217 754.6667,-217 754.6667,-217 760.3333,-217 766,-222.6667 766,-228.3333 766,-228.3333 766,-239.6667 766,-239.6667 766,-245.3333 760.3333,-251 754.6667,-251 754.6667,-251 633.3333,-251 633.3333,-251 627.6667,-251 622,-245.3333 622,-239.6667 622,-239.6667 622,-228.3333 622,-228.3333 622,-222.6667 627.6667,-217 633.3333,-217"
         id="path31" />
    </g>
    <!-- receive_request_state&#45;&gt;receive_request_state1 -->
    <g
       id="edge12"
       class="edge transition">
      <title
         id="title31">receive_request_state-&gt;receive_request_state1</title>
      <path
         fill="none"
         stroke="#000000"
         d="M716.3054,-321.6189C721.4504,-316.8668 726.0998,-311.2891 729,-305 735.9106,-290.0147 728.6378,-273.4663 718.9668,-260.1182"
         id="path32" />
      <polygon
         fill="#000000"
         stroke="#000000"
         points="721.6953,-257.9259 712.7407,-252.2633 716.2096,-262.2742 721.6953,-257.9259"
         id="polygon32" />
      <text
         text-anchor="middle"
         x="732.3895"
         y="-296"
         font-family="Helvetica,sans-Serif"
         font-size="10.00"
         fill="#000000"
         id="text32" />
    </g>
    <!-- receive_request_state1&#45;&gt;receive_request_state -->
    <g
       id="edge14"
       class="edge transition">
      <title
         id="title32">receive_request_state1-&gt;receive_request_state</title>
      <path
         fill="none"
         stroke="#000000"
         d="M644.1996,-252.0166C626.0101,-261.2988 607.378,-274.6212 597.048,-293 590.0075,-305.5261 596.4841,-314.828 608.6427,-321.6929"
         id="path33" />
      <polygon
         fill="#000000"
         stroke="#000000"
         points="607.336,-324.9468 617.8716,-326.0658 610.3334,-318.6209 607.336,-324.9468"
         id="polygon33" />
      <text
         text-anchor="start"
         x="597"
         y="-296"
         font-family="Helvetica,sans-Serif"
         font-size="10.00"
         fill="#000000"
         id="text33">not (r_counter_active = '0')   </text>
    </g>
    <!-- parse_request_state -->
    <g
       id="node9"
       class="node state regular">
      <title
         id="title33">parse_request_state</title>
      <polygon
         fill="#ffffff"
         fill-opacity="0.003922"
         stroke="transparent"
         stroke-width="2"
         points="676.5,-146 545.5,-146 545.5,-110 676.5,-110 676.5,-146"
         id="polygon34" />
      <text
         text-anchor="start"
         x="556.8136"
         y="-124.2"
         font-family="Helvetica,sans-Serif"
         font-size="12.00"
         fill="#000000"
         id="text34">parse_request_state</text>
      <path
         fill="none"
         stroke="#000000"
         stroke-width="2"
         d="M557.8333,-111C557.8333,-111 664.1667,-111 664.1667,-111 669.8333,-111 675.5,-116.6667 675.5,-122.3333 675.5,-122.3333 675.5,-133.6667 675.5,-133.6667 675.5,-139.3333 669.8333,-145 664.1667,-145 664.1667,-145 557.8333,-145 557.8333,-145 552.1667,-145 546.5,-139.3333 546.5,-133.6667 546.5,-133.6667 546.5,-122.3333 546.5,-122.3333 546.5,-116.6667 552.1667,-111 557.8333,-111"
         id="path34" />
    </g>
    <!-- receive_request_state1&#45;&gt;parse_request_state -->
    <g
       id="edge13"
       class="edge transition">
      <title
         id="title34">receive_request_state1-&gt;parse_request_state</title>
      <path
         fill="none"
         stroke="#000000"
         d="M679.5425,-215.5362C666.2722,-198.5886 646.4676,-173.296 631.5542,-154.25"
         id="path35" />
      <polygon
         fill="#000000"
         stroke="#000000"
         points="634.2127,-151.9679 625.2918,-146.2522 628.7012,-156.2835 634.2127,-151.9679"
         id="polygon35" />
      <text
         text-anchor="start"
         x="647"
         y="-166"
         font-family="Helvetica,sans-Serif"
         font-size="10.00"
         fill="#000000"
         id="text35">r_counter_active = '0'   </text>
    </g>
    <!-- set_address_state -->
    <g
       id="node10"
       class="node state regular">
      <title
         id="title35">set_address_state</title>
      <polygon
         fill="#ffffff"
         fill-opacity="0.003922"
         stroke="transparent"
         stroke-width="2"
         points="937,-52 817,-52 817,-16 937,-16 937,-52"
         id="polygon36" />
      <text
         text-anchor="start"
         x="827.9818"
         y="-30.2"
         font-family="Helvetica,sans-Serif"
         font-size="12.00"
         fill="#000000"
         id="text36">set_address_state</text>
      <path
         fill="none"
         stroke="#000000"
         stroke-width="2"
         d="M829.3333,-17C829.3333,-17 924.6667,-17 924.6667,-17 930.3333,-17 936,-22.6667 936,-28.3333 936,-28.3333 936,-39.6667 936,-39.6667 936,-45.3333 930.3333,-51 924.6667,-51 924.6667,-51 829.3333,-51 829.3333,-51 823.6667,-51 818,-45.3333 818,-39.6667 818,-39.6667 818,-28.3333 818,-28.3333 818,-22.6667 823.6667,-17 829.3333,-17"
         id="path36" />
    </g>
    <!-- parse_request_state&#45;&gt;set_address_state -->
    <g
       id="edge15"
       class="edge transition">
      <title
         id="title36">parse_request_state-&gt;set_address_state</title>
      <path
         fill="none"
         stroke="#000000"
         d="M674.2132,-109.9481C691.4266,-104.7554 710.0078,-98.8942 727,-93 759.6606,-81.6707 795.7293,-67.5366 824.3115,-55.9428"
         id="path37" />
      <polygon
         fill="#000000"
         stroke="#000000"
         points="825.7621,-59.1312 833.7019,-52.1161 823.1204,-52.6488 825.7621,-59.1312"
         id="polygon37" />
      <text
         text-anchor="start"
         x="791"
         y="-78"
         font-family="Helvetica,sans-Serif"
         font-size="10.00"
         fill="#000000"
         id="text37">i_request.bRequest = USB_REQUEST_SET_ADDRESS   </text>
    </g>
    <!-- send_descriptor_state -->
    <g
       id="node11"
       class="node state regular">
      <title
         id="title37">send_descriptor_state</title>
      <polygon
         fill="#ffffff"
         fill-opacity="0.003922"
         stroke="transparent"
         stroke-width="2"
         points="156,-52 16,-52 16,-16 156,-16 156,-52"
         id="polygon38" />
      <text
         text-anchor="start"
         x="26.9822"
         y="-30.2"
         font-family="Helvetica,sans-Serif"
         font-size="12.00"
         fill="#000000"
         id="text38">send_descriptor_state</text>
      <path
         fill="none"
         stroke="#000000"
         stroke-width="2"
         d="M28.3333,-17C28.3333,-17 143.6667,-17 143.6667,-17 149.3333,-17 155,-22.6667 155,-28.3333 155,-28.3333 155,-39.6667 155,-39.6667 155,-45.3333 149.3333,-51 143.6667,-51 143.6667,-51 28.3333,-51 28.3333,-51 22.6667,-51 17,-45.3333 17,-39.6667 17,-39.6667 17,-28.3333 17,-28.3333 17,-22.6667 22.6667,-17 28.3333,-17"
         id="path38" />
    </g>
    <!-- parse_request_state&#45;&gt;send_descriptor_state -->
    <g
       id="edge16"
       class="edge transition">
      <title
         id="title38">parse_request_state-&gt;send_descriptor_state</title>
      <path
         fill="none"
         stroke="#000000"
         d="M545.3904,-121.3154C508.0713,-117.6551 460.4481,-113.2222 418,-110 385.8038,-107.556 156.142,-108.6475 127.898,-93 115.0251,-85.8683 105.1603,-72.9098 98.2462,-60.9502"
         id="path39" />
      <polygon
         fill="#000000"
         stroke="#000000"
         points="101.327,-59.2892 93.533,-52.1125 95.1504,-62.5831 101.327,-59.2892"
         id="polygon39" />
      <text
         text-anchor="start"
         x="127"
         y="-78"
         font-family="Helvetica,sans-Serif"
         font-size="10.00"
         fill="#000000"
         id="text39">i_request.bRequest = USB_REQUEST_GET_DESCRIPTOR   </text>
    </g>
    <!-- parse_request_state&#45;&gt;send_nak_state -->
    <g
       id="edge17"
       class="edge transition">
      <title
         id="title39">parse_request_state-&gt;send_nak_state</title>
      <path
         fill="none"
         stroke="#000000"
         d="M545.2118,-122.9584C498.8563,-118.0845 442.0529,-109.0118 424.564,-93 416.0009,-85.1602 411.7284,-73.2835 409.6446,-62.236"
         id="path40" />
      <polygon
         fill="#000000"
         stroke="#000000"
         points="413.075,-61.4888 408.2487,-52.0571 406.1399,-62.4399 413.075,-61.4888"
         id="polygon40" />
      <text
         text-anchor="start"
         x="424"
         y="-84"
         font-family="Helvetica,sans-Serif"
         font-size="10.00"
         fill="#000000"
         id="text40">not (i_request.bRequest = USB_REQUEST_SET_ADDRESS)   </text>
      <text
         text-anchor="start"
         x="424"
         y="-72"
         font-family="Helvetica,sans-Serif"
         font-size="10.00"
         fill="#000000"
         id="text41">not (i_request.bRequest = USB_REQUEST_GET_DESCRIPTOR)   </text>
    </g>
    <!-- set_address_state&#45;&gt;idle_state -->
    <g
       id="edge18"
       class="edge transition">
      <title
         id="title41">set_address_state-&gt;idle_state</title>
      <path
         fill="none"
         stroke="#000000"
         d="M937.1745,-38.022C990.512,-43.2942 1060,-55.1275 1060,-81 1060,-183.5 1060,-183.5 1060,-183.5 1060,-241.2846 1058,-255.7154 1058,-313.5 1058,-493 1058,-493 1058,-493 1058,-527.4348 534.6043,-537.2463 373.5739,-539.4501"
         id="path41" />
      <polygon
         fill="#000000"
         stroke="#000000"
         points="373.4529,-535.9513 363.5005,-539.5845 373.5463,-542.9507 373.4529,-535.9513"
         id="polygon41" />
      <text
         text-anchor="middle"
         x="1059.3895"
         y="-296"
         font-family="Helvetica,sans-Serif"
         font-size="10.00"
         fill="#000000"
         id="text42" />
    </g>
    <!-- send_descriptor_state&#45;&gt;idle_state -->
    <g
       id="edge19"
       class="edge transition">
      <title
         id="title42">send_descriptor_state-&gt;idle_state</title>
      <path
         fill="none"
         stroke="#000000"
         d="M80.3998,-52.1077C67.738,-94.7077 38,-204.7875 38,-299 38,-493 38,-493 38,-493 38,-517.2521 198.6006,-531.4646 280.359,-537.1287"
         id="path42" />
      <polygon
         fill="#000000"
         stroke="#000000"
         points="280.1843,-540.6248 290.398,-537.8086 280.6574,-533.6408 280.1843,-540.6248"
         id="polygon42" />
      <text
         text-anchor="start"
         x="45.337276"
         y="-296"
         font-family="Helvetica, sans-Serif"
         font-size="10px"
         fill="#000000"
         id="text43">i_transmit_busy = '0'   </text>
    </g>
    <!-- send_descriptor_state&#45;&gt;send_descriptor_state -->
    <g
       id="edge20"
       class="edge transition">
      <title
         id="title43">send_descriptor_state-&gt;send_descriptor_state</title>
      <path
         fill="none"
         stroke="#000000"
         d="M156.1968,-38.6072C169.0119,-38.024 178,-36.4883 178,-34 178,-32.2504 173.5564,-30.9718 166.4633,-30.1641"
         id="path43" />
      <polygon
         fill="#000000"
         stroke="#000000"
         points="166.4309,-26.6518 156.1968,-29.3928 165.9065,-33.6322 166.4309,-26.6518"
         id="polygon43" />
      <text
         text-anchor="start"
         x="178"
         y="-31"
         font-family="Helvetica, sans-Serif"
         font-size="10px"
         fill="#000000"
         id="text44">(i_transmit_busy = '1')   </text>
    </g>
    <!-- send_ack_state -->
    <g
       id="node12"
       class="node state regular">
      <title
         id="title44">send_ack_state</title>
      <polygon
         fill="#ffffff"
         fill-opacity="0.003922"
         stroke="transparent"
         stroke-width="2"
         points="380,-640 274,-640 274,-604 380,-604 380,-640"
         id="polygon44" />
      <text
         text-anchor="start"
         x="284.982"
         y="-618.2"
         font-family="Helvetica,sans-Serif"
         font-size="12.00"
         fill="#000000"
         id="text45">send_ack_state</text>
      <path
         fill="none"
         stroke="#000000"
         stroke-width="2"
         d="M286.3333,-605C286.3333,-605 367.6667,-605 367.6667,-605 373.3333,-605 379,-610.6667 379,-616.3333 379,-616.3333 379,-627.6667 379,-627.6667 379,-633.3333 373.3333,-639 367.6667,-639 367.6667,-639 286.3333,-639 286.3333,-639 280.6667,-639 275,-633.3333 275,-627.6667 275,-627.6667 275,-616.3333 275,-616.3333 275,-610.6667 280.6667,-605 286.3333,-605"
         id="path45" />
    </g>
    <!-- send_ack_state&#45;&gt;idle_state -->
    <g
       id="edge21"
       class="edge transition">
      <title
         id="title45">send_ack_state-&gt;idle_state</title>
      <path
         fill="none"
         stroke="#000000"
         d="M327,-603.8015C327,-593.3976 327,-580.1215 327,-568.3768"
         id="path46" />
      <polygon
         fill="#000000"
         stroke="#000000"
         points="330.5001,-568.1476 327,-558.1476 323.5001,-568.1476 330.5001,-568.1476"
         id="polygon46" />
      <text
         text-anchor="start"
         x="327"
         y="-578"
         font-family="Helvetica,sans-Serif"
         font-size="10.00"
         fill="#000000"
         id="text46">i_transmit_busy = '0'   </text>
    </g>
    <!-- send_ack_state&#45;&gt;send_ack_state -->
    <g
       id="edge22"
       class="edge transition">
      <title
         id="title46">send_ack_state-&gt;send_ack_state</title>
      <path
         fill="none"
         stroke="#000000"
         d="M380.2553,-626.7786C392.7684,-626.3858 402,-624.793 402,-622 402,-620.0362 397.4361,-618.6657 390.3765,-617.8885"
         id="path47" />
      <polygon
         fill="#000000"
         stroke="#000000"
         points="390.4639,-614.3868 380.2553,-617.2214 390.0035,-621.3716 390.4639,-614.3868"
         id="polygon47" />
      <text
         text-anchor="start"
         x="402"
         y="-619"
         font-family="Helvetica,sans-Serif"
         font-size="10.00"
         fill="#000000"
         id="text47">not (i_transmit_busy = '0')   </text>
    </g>
    <!-- send_nak_state&#45;&gt;idle_state -->
    <g
       id="edge23"
       class="edge transition">
      <title
         id="title47">send_nak_state-&gt;idle_state</title>
      <path
         fill="none"
         stroke="#000000"
         d="M354.9545,-44.5396C339.8314,-47.2745 323.306,-50.0077 308,-52 284.7862,-55.0216 113.8713,-51.792 98,-69 20.0996,-153.4615 182,-198.5991 182,-313.5 182,-493 182,-493 182,-493 182,-514.0691 238.0999,-527.112 280.5103,-533.9618"
         id="path48" />
      <polygon
         fill="#000000"
         stroke="#000000"
         points="279.9933,-537.4234 290.4104,-535.4908 281.0618,-530.5054 279.9933,-537.4234"
         id="polygon48" />
      <text
         text-anchor="start"
         x="184.66864"
         y="-297.83432"
         font-family="Helvetica, sans-Serif"
         font-size="10px"
         fill="#000000"
         id="text48">i_transmit_busy = '0'   </text>
    </g>
    <!-- send_nak_state&#45;&gt;send_nak_state -->
    <g
       id="edge24"
       class="edge transition"
       transform="translate(-4.5857988,8.2544379)">
      <title
         id="title48">send_nak_state-&gt;send_nak_state</title>
      <path
         fill="none"
         stroke="#000000"
         d="M 461.2553,-38.7786 C 473.7684,-38.3858 483,-36.793 483,-34 c 0,1.9638 -4.5639,3.3343 -11.6235,4.1115"
         id="path49" />
      <polygon
         fill="#000000"
         stroke="#000000"
         points="461.2553,-29.2214 471.0035,-33.3716 471.4639,-26.3868 "
         id="polygon49" />
      <text
         text-anchor="start"
         x="483"
         y="-31"
         font-family="Helvetica, sans-Serif"
         font-size="10px"
         fill="#000000"
         id="text49">(i_transmit_busy = '1')   </text>
    </g>
    <text
       xml:space="preserve"
       transform="matrix(0.75,0,0,0.75,-4,-690)"
       id="text50"
       style="font-style:normal;font-weight:normal;font-size:40px;line-height:1.25;font-family:sans-serif;white-space:pre;shape-inside:url(#rect50);display:inline;fill:#000000;fill-opacity:1;stroke:none" />
    <text
       xml:space="preserve"
       transform="matrix(0.75,0,0,0.75,-4,-690)"
       id="text51"
       style="font-style:normal;font-weight:normal;font-size:40px;line-height:1.25;font-family:sans-serif;white-space:pre;shape-inside:url(#rect51);display:inline;fill:#000000;fill-opacity:1;stroke:none" />
    <text
       xml:space="preserve"
       transform="matrix(0.75,0,0,0.75,-4,-690)"
       id="text52"
       style="font-style:normal;font-weight:normal;font-size:40px;line-height:1.25;font-family:sans-serif;white-space:pre;shape-inside:url(#rect52);display:inline;fill:#000000;fill-opacity:1;stroke:none" />
  </g>
</svg>
